<?xml version="1.0" encoding="UTF-8" standalone="no"?>
<!-- Generator: Adobe Illustrator 19.1.0, SVG Export Plug-In . SVG Version: 6.00 Build 0)  -->

<svg
   version="1.1"
   id="Capa_1"
   x="0px"
   y="0px"
   viewBox="0 0 485 485"
   style="enable-background:new 0 0 485 485;"
   xml:space="preserve"
   sodipodi:docname="back.svg"
   inkscape:version="1.1.1 (3bf5ae0d25, 2021-09-20)"
   xmlns:inkscape="http://www.inkscape.org/namespaces/inkscape"
   xmlns:sodipodi="http://sodipodi.sourceforge.net/DTD/sodipodi-0.dtd"
   xmlns="http://www.w3.org/2000/svg"
   xmlns:svg="http://www.w3.org/2000/svg"><defs
   id="defs43" /><sodipodi:namedview
   id="namedview41"
   pagecolor="#ffffff"
   bordercolor="#666666"
   borderopacity="1.0"
   inkscape:pageshadow="2"
   inkscape:pageopacity="0.0"
   inkscape:pagecheckerboard="0"
   showgrid="false"
   inkscape:zoom="1.0721649"
   inkscape:cx="242.5"
   inkscape:cy="242.96635"
   inkscape:window-width="1366"
   inkscape:window-height="705"
   inkscape:window-x="-8"
   inkscape:window-y="-8"
   inkscape:window-maximized="1"
   inkscape:current-layer="Capa_1" />
<g
   id="g8"
   style="fill:#ffffff;fill-opacity:1">
	<g
   id="g6"
   style="fill:#ffffff;fill-opacity:1">
		<path
   d="M471.5,229h-323l84.4-84.4c5.3-5.3,5.3-13.8,0-19.1s-13.8-5.3-19.1,0L106.3,233c-2.5,2.5-4,6-4,9.5s1.4,7,4,9.5    l107.5,107.5c2.6,2.6,6.1,4,9.5,4s6.9-1.3,9.5-4c5.3-5.3,5.3-13.8,0-19.1L148.5,256h323c7.5,0,13.5-6,13.5-13.5S479,229,471.5,229    z"
   id="path2"
   style="fill:#ffffff;fill-opacity:1" />
		<path
   d="M13.5,45C6,45,0,51,0,58.5v368C0,434,6,440,13.5,440S27,434,27,426.5v-368C27,51,21,45,13.5,45z"
   id="path4"
   style="fill:#ffffff;fill-opacity:1" />
	</g>
</g>
<g
   id="g10">
</g>
<g
   id="g12">
</g>
<g
   id="g14">
</g>
<g
   id="g16">
</g>
<g
   id="g18">
</g>
<g
   id="g20">
</g>
<g
   id="g22">
</g>
<g
   id="g24">
</g>
<g
   id="g26">
</g>
<g
   id="g28">
</g>
<g
   id="g30">
</g>
<g
   id="g32">
</g>
<g
   id="g34">
</g>
<g
   id="g36">
</g>
<g
   id="g38">
</g>
</svg>
