<?xml version="1.0" encoding="UTF-8" standalone="no"?>
<svg
   xmlns:dc="http://purl.org/dc/elements/1.1/"
   xmlns:cc="http://creativecommons.org/ns#"
   xmlns:rdf="http://www.w3.org/1999/02/22-rdf-syntax-ns#"
   xmlns:svg="http://www.w3.org/2000/svg"
   xmlns="http://www.w3.org/2000/svg"
   xmlns:sodipodi="http://sodipodi.sourceforge.net/DTD/sodipodi-0.dtd"
   xmlns:inkscape="http://www.inkscape.org/namespaces/inkscape"
   inkscape:version="1.0 (4035a4fb49, 2020-05-01)"
   sodipodi:docname="luggage.svg"
   xml:space="preserve"
   style="enable-background:new 0 0 431.308 431.308;"
   viewBox="0 0 431.308 431.308"
   height="431.308px"
   width="431.308px"
   y="0px"
   x="0px"
   id="Capa_1"
   version="1.1"><metadata
   id="metadata49"><rdf:RDF><cc:Work
       rdf:about=""><dc:format>image/svg+xml</dc:format><dc:type
         rdf:resource="http://purl.org/dc/dcmitype/StillImage" /></cc:Work></rdf:RDF></metadata><defs
   id="defs47" /><sodipodi:namedview
   inkscape:current-layer="Capa_1"
   inkscape:window-maximized="1"
   inkscape:window-y="-8"
   inkscape:window-x="-8"
   inkscape:cy="215.65401"
   inkscape:cx="215.65401"
   inkscape:zoom="1.7041186"
   showgrid="false"
   id="namedview45"
   inkscape:window-height="987"
   inkscape:window-width="1680"
   inkscape:pageshadow="2"
   inkscape:pageopacity="0"
   guidetolerance="10"
   gridtolerance="10"
   objecttolerance="10"
   borderopacity="1"
   bordercolor="#666666"
   pagecolor="#ffffff" />
<g
   id="g12">
	<g
   id="g10">
		<g
   id="g8">
			<circle
   id="circle2"
   r="26.5"
   cy="371.121"
   cx="249.448" />
			<circle
   id="circle4"
   r="26.5"
   cy="371.121"
   cx="351.448" />
			<path
   id="path6"
   d="M426.426,100.409c-3.801-4.386-9.313-6.905-15.116-6.905c-0.005,0-0.011,0-0.015,0L99.618,93.672L68.574,43.208     c-3.641-5.917-10.089-9.521-17.035-9.521c-0.01,0-0.021,0-0.031,0l-31.539,0.05C8.923,33.755-0.017,42.723,0,53.769     c0.018,11.035,8.969,19.968,19.999,19.968c0.011,0,0.021,0,0.032,0l20.341-0.032l151.431,245.338     c3.653,5.854,10.066,9.41,16.967,9.41h179c11.047,0,20-8.954,20-20s-8.953-20-20-20H219.863l-10.499-16.818h181.943     c9.938,0,18.37-7.299,19.794-17.136l19.999-138.13C431.934,110.622,430.227,104.798,426.426,100.409z M392.409,199.784     l-1.717,10.732c-0.983,6.146-6.294,10.527-12.327,10.527c-0.657,0-1.321-0.053-1.99-0.158     c-6.815-1.092-11.459-7.501-10.368-14.318l1.718-10.732c1.091-6.817,7.509-11.458,14.316-10.369     C388.857,186.557,393.5,192.967,392.409,199.784z M403.39,131.162l-5.577,34.858c-0.983,6.148-6.295,10.527-12.327,10.527     c-0.657,0-1.322-0.052-1.991-0.159c-6.815-1.091-11.458-7.501-10.367-14.318l5.578-34.858     c1.091-6.817,7.513-11.464,14.318-10.368C399.839,117.935,404.48,124.345,403.39,131.162z" />
		</g>
	</g>
</g>
<g
   id="g14">
</g>
<g
   id="g16">
</g>
<g
   id="g18">
</g>
<g
   id="g20">
</g>
<g
   id="g22">
</g>
<g
   id="g24">
</g>
<g
   id="g26">
</g>
<g
   id="g28">
</g>
<g
   id="g30">
</g>
<g
   id="g32">
</g>
<g
   id="g34">
</g>
<g
   id="g36">
</g>
<g
   id="g38">
</g>
<g
   id="g40">
</g>
<g
   id="g42">
</g>
<path
   id="path874"
   d="m 203.91773,327.39167 c -4.01854,-1.07384 -8.76599,-4.26889 -10.88375,-7.32481 -0.88583,-1.27825 -35.4681,-57.18005 -76.84949,-124.22622 L 40.945593,73.938517 28.39478,73.638183 C 16.121673,73.344495 15.763021,73.300614 12.185589,71.655033 7.9248329,69.695129 3.7566097,65.564732 1.8865897,61.449496 0.91618442,59.313986 0.62883412,57.541435 0.6292477,53.693447 c 4.6517e-4,-4.327926 0.22535738,-5.437523 1.6996378,-8.385848 1.8727769,-3.745255 5.380064,-7.313659 9.0070585,-9.164014 4.023326,-2.052547 9.629182,-2.521266 27.604374,-2.308066 l 16.834617,0.199671 3.931509,1.936205 c 2.342125,1.153459 4.79547,2.932684 6.068603,4.401102 1.1754,1.355694 9.208761,13.951774 17.851921,27.99129 L 99.341802,93.89018 H 257.40292 415.46405 l 3.65837,1.689741 c 6.45528,2.981583 11.05592,9.203829 11.6912,15.812019 0.41658,4.33333 -19.93087,144.54394 -21.48674,148.06125 -1.59565,3.60722 -6.08915,8.14903 -9.92713,10.03383 l -3.30055,1.62087 -93.45007,0.15552 c -51.39754,0.0855 -93.44196,0.34959 -93.43205,0.58681 0.01,0.23721 2.34839,4.12823 5.19661,8.64669 l 5.17859,8.21539 86.78642,0.29341 86.78643,0.29341 2.64066,1.24805 c 8.62713,4.07743 13.41492,14.09594 10.8889,22.78515 -1.80452,6.20733 -5.3213,10.31181 -11.18231,13.05099 l -3.52088,1.64551 -92.42314,0.11264 c -79.70172,0.0971 -92.86739,-0.006 -95.65063,-0.74979 z M 384.6511,219.56777 c 4.16923,-2.11572 5.70993,-5.19322 7.21141,-14.40464 1.43037,-8.77512 1.0898,-11.61092 -1.84095,-15.32892 -5.90919,-7.49649 -18.40708,-5.6861 -21.76777,3.15319 -1.22881,3.23202 -2.87857,15.24318 -2.42821,17.67869 1.65229,8.93537 10.50766,13.12265 18.82552,8.90168 z m 7.17113,-44.50857 c 1.35543,-0.7493 3.2231,-2.44303 4.15038,-3.76383 1.53726,-2.18967 1.94371,-3.97523 4.60836,-20.24507 3.60594,-22.0172 3.72949,-24.60865 1.35846,-28.49279 -5.08079,-8.32316 -18.16091,-7.90516 -22.24957,0.71104 -1.15678,2.43774 -6.77608,36.51323 -6.75692,40.97402 0.0232,5.38869 3.23975,9.98966 8.34269,11.93327 2.68463,1.02252 7.62282,0.49968 10.5466,-1.11664 z"
   style="fill:#fffff9;stroke:#ffffff;stroke-width:2.21816" /><path
   id="path876"
   d="m 245.40962,396.93197 c -12.22833,-1.81104 -22.11311,-13.33154 -22.11311,-25.77235 0,-15.57036 14.97656,-28.54293 29.91448,-25.91167 23.94118,4.21716 30.50616,34.66178 10.29578,47.74594 -5.42549,3.51245 -11.721,4.8824 -18.09715,3.93808 z"
   style="fill:#fffff9;stroke:#ffffff;stroke-width:2.21816" /><path
   id="path878"
   d="m 347.10026,396.89908 c -6.64002,-1.06332 -13.88344,-5.85731 -17.59925,-11.64789 -10.15733,-15.82882 -0.67832,-36.6805 18.18515,-40.00324 14.70259,-2.58981 29.88326,10.31855 29.92144,25.44267 0.0411,16.27312 -14.50654,28.7708 -30.50734,26.20846 z"
   style="fill:#fffff9;stroke:#ffffff;stroke-width:2.21816" /></svg>
