<?xml version="1.0" encoding="UTF-8" standalone="no"?>
<svg
   xmlns:dc="http://purl.org/dc/elements/1.1/"
   xmlns:cc="http://creativecommons.org/ns#"
   xmlns:rdf="http://www.w3.org/1999/02/22-rdf-syntax-ns#"
   xmlns:svg="http://www.w3.org/2000/svg"
   xmlns="http://www.w3.org/2000/svg"
   xmlns:sodipodi="http://sodipodi.sourceforge.net/DTD/sodipodi-0.dtd"
   xmlns:inkscape="http://www.inkscape.org/namespaces/inkscape"
   inkscape:version="1.0 (4035a4fb49, 2020-05-01)"
   sodipodi:docname="phone.svg"
   xml:space="preserve"
   style="enable-background:new 0 0 891.024 891.024;"
   viewBox="0 0 891.024 891.024"
   height="891.024px"
   width="891.024px"
   y="0px"
   x="0px"
   id="Capa_1"
   version="1.1"><metadata
   id="metadata41"><rdf:RDF><cc:Work
       rdf:about=""><dc:format>image/svg+xml</dc:format><dc:type
         rdf:resource="http://purl.org/dc/dcmitype/StillImage" /></cc:Work></rdf:RDF></metadata><defs
   id="defs39" /><sodipodi:namedview
   inkscape:current-layer="Capa_1"
   inkscape:window-maximized="1"
   inkscape:window-y="-8"
   inkscape:window-x="-8"
   inkscape:cy="445.51199"
   inkscape:cx="445.51199"
   inkscape:zoom="0.82489362"
   showgrid="false"
   id="namedview37"
   inkscape:window-height="987"
   inkscape:window-width="1680"
   inkscape:pageshadow="2"
   inkscape:pageopacity="0"
   guidetolerance="10"
   gridtolerance="10"
   objecttolerance="10"
   borderopacity="1"
   bordercolor="#666666"
   pagecolor="#ffffff" />
<g
   id="g4">
	<path
   id="path2"
   d="M2.8,180.875c46.6,134,144.7,286.2,282.9,424.399c138.2,138.2,290.4,236.301,424.4,282.9c18.2,6.3,38.3,1.8,52-11.8   l92.7-92.7l21.6-21.6c19.5-19.5,19.5-51.2,0-70.7l-143.5-143.4c-19.5-19.5-51.2-19.5-70.7,0l-38.899,38.9   c-20.2,20.2-52.4,22.2-75,4.6c-44.7-34.8-89-73.899-131.9-116.8c-42.9-42.9-82-87.2-116.8-131.9c-17.601-22.6-15.601-54.7,4.6-75   l38.9-38.9c19.5-19.5,19.5-51.2,0-70.7l-143.5-143.5c-19.5-19.5-51.2-19.5-70.7,0l-21.6,21.6l-92.7,92.7   C1,142.575-3.5,162.675,2.8,180.875z" />
</g>
<g
   id="g6">
</g>
<g
   id="g8">
</g>
<g
   id="g10">
</g>
<g
   id="g12">
</g>
<g
   id="g14">
</g>
<g
   id="g16">
</g>
<g
   id="g18">
</g>
<g
   id="g20">
</g>
<g
   id="g22">
</g>
<g
   id="g24">
</g>
<g
   id="g26">
</g>
<g
   id="g28">
</g>
<g
   id="g30">
</g>
<g
   id="g32">
</g>
<g
   id="g34">
</g>
<path
   id="path866"
   d="m 717.22681,889.54416 c -1.57632,-0.29892 -7.84986,-2.35167 -13.94119,-4.56167 C 583.57531,841.55046 459.24745,763.01524 338.83157,654.76479 316.00001,634.23987 256.40612,574.65889 236.23697,552.19242 128.36444,432.03292 53.697313,314.47191 7.5588515,192.14599 1.7642614,176.78292 1.3807522,175.07081 1.2991769,164.20074 1.2166292,153.20104 1.4368179,152.16911 5.6965798,143.59202 9.9215852,135.08491 13.847062,130.91215 73.584121,71.428128 132.37222,12.889046 137.56094,8.037436 144.86717,4.7762983 c 6.90392,-3.0815652 9.30609,-3.5171525 19.39644,-3.5171525 10.08608,0 12.49543,0.4364688 19.39644,3.5138025 7.36171,3.2827728 13.00486,8.6215507 85.82852,81.1991607 72.45985,72.215051 78.24869,78.288961 82.20887,86.257271 7.23287,14.5534 6.82182,32.14197 -1.06042,45.37444 -1.39008,2.33363 -13.78678,15.69899 -27.54823,29.7008 -21.37176,21.74504 -25.65464,26.72729 -29.3669,34.16226 -8.3262,16.67582 -8.70245,34.39837 -1.07803,50.77913 5.7943,12.44879 50.25617,66.09262 89.05479,107.44573 20.15512,21.48214 65.76512,66.5552 84.47244,83.47802 38.78874,35.08865 81.96148,70.20863 92.34158,75.11765 16.06068,7.59549 33.50892,7.4154 50.2151,-0.51833 8.0914,-3.8426 11.80052,-7.00601 35.35081,-30.14979 18.75225,-18.42857 27.97256,-26.62759 32.09499,-28.53995 13.36482,-6.19981 28.00918,-6.43565 41.2546,-0.66437 6.94212,3.02481 13.44435,9.18442 85.46251,80.95925 73.94086,73.69105 78.17937,78.14962 82.43488,86.71457 4.23878,8.53135 4.48485,9.66769 4.46272,20.60872 -0.0205,10.13027 -0.46363,12.56571 -3.54059,19.45931 -3.26192,7.30796 -8.09021,12.46979 -66.53293,71.12888 -44.27786,44.44178 -64.7995,64.2199 -69.01446,66.51396 -10.33755,5.6264 -22.80954,7.76676 -33.47349,5.7445 z"
   style="fill:#fffff9;stroke:#ffffff;stroke-width:4.58241" /></svg>
