<?xml version="1.0" encoding="UTF-8" standalone="no"?>
<svg
   xmlns:dc="http://purl.org/dc/elements/1.1/"
   xmlns:cc="http://creativecommons.org/ns#"
   xmlns:rdf="http://www.w3.org/1999/02/22-rdf-syntax-ns#"
   xmlns:svg="http://www.w3.org/2000/svg"
   xmlns="http://www.w3.org/2000/svg"
   xmlns:sodipodi="http://sodipodi.sourceforge.net/DTD/sodipodi-0.dtd"
   xmlns:inkscape="http://www.inkscape.org/namespaces/inkscape"
   inkscape:version="1.0 (4035a4fb49, 2020-05-01)"
   sodipodi:docname="price.svg"
   xml:space="preserve"
   style="enable-background:new 0 0 484.7 484.7;"
   viewBox="0 0 484.7 484.7"
   y="0px"
   x="0px"
   id="Capa_1"
   version="1.1"><metadata
   id="metadata45"><rdf:RDF><cc:Work
       rdf:about=""><dc:format>image/svg+xml</dc:format><dc:type
         rdf:resource="http://purl.org/dc/dcmitype/StillImage" /></cc:Work></rdf:RDF></metadata><defs
   id="defs43" /><sodipodi:namedview
   inkscape:current-layer="Capa_1"
   inkscape:window-maximized="1"
   inkscape:window-y="-8"
   inkscape:window-x="-8"
   inkscape:cy="242.35001"
   inkscape:cx="242.35001"
   inkscape:zoom="1.5164019"
   showgrid="false"
   id="namedview41"
   inkscape:window-height="987"
   inkscape:window-width="1680"
   inkscape:pageshadow="2"
   inkscape:pageopacity="0"
   guidetolerance="10"
   gridtolerance="10"
   objecttolerance="10"
   borderopacity="1"
   bordercolor="#666666"
   pagecolor="#ffffff" />
<g
   id="g8">
	<g
   id="g6">
		<path
   id="path2"
   d="M468.6,204.55h-36.2c-5-25.5-15-49.1-29-70l25.6-25.6c6.2-6.2,6.2-16.4,0-22.6l-30.8-30.8c-6.2-6.2-16.4-6.2-22.6,0    L350,81.15c-20.8-13.9-44.5-24-70-29v-36.1c0-8.8-7.2-16-16-16h-43.5c-8.8,0-16,7.2-16,16v36.2c-25.5,5-49.1,15-70,29l-25.6-25.6    c-6.2-6.2-16.4-6.2-22.6,0l-30.7,30.7c-6.2,6.2-6.2,16.4,0,22.6l25.6,25.6c-13.9,20.8-24,44.5-29,70H16c-8.8,0-16,7.2-16,16v43.5    c0,8.8,7.2,16,16,16h36.2c5,25.5,15,49.1,29,70l-25.6,25.6c-6.2,6.2-6.2,16.4,0,22.6l30.8,30.8c6.2,6.2,16.4,6.2,22.6,0l25.6-25.6    c20.8,14,44.5,24,70,29v36.2c0,8.8,7.2,16,16,16h43.5c8.8,0,16-7.2,16-16v-36.2c25.5-5,49.1-15,70-29l25.6,25.6    c6.2,6.2,16.4,6.2,22.6,0l30.8-30.8c6.2-6.2,6.2-16.4,0-22.6l-25.6-25.6c13.9-20.8,24-44.5,29-70h36.2c8.8,0,16-7.2,16-16v-43.5    C484.6,211.75,477.5,204.55,468.6,204.55z M242.3,378.75c-75.2,0-136.4-61.2-136.4-136.4s61.2-136.4,136.4-136.4    s136.4,61.2,136.4,136.4S317.5,378.75,242.3,378.75z" />
		<path
   id="path4"
   d="M242.3,135.75c-30.7,0-58.4,13-77.8,33.7c-17.8,19.1-28.8,44.7-28.8,72.8c0,58.9,47.7,106.6,106.6,106.6    s106.6-47.7,106.6-106.6C348.9,183.45,301.2,135.75,242.3,135.75z M272.9,284.35c-4.7,5.7-10.7,9.5-17.8,11.4    c-3.1,0.8-4.5,2.5-4.3,5.7c0.1,3.1,0,6.3,0,9.4c0,2.8-1.4,4.3-4.2,4.4c-3.4,0.1-6.8,0.1-10.2,0c-3-0.1-4.4-1.7-4.4-4.6    c0-2.3,0-4.6-0.1-6.9c-0.1-5.1-0.2-5.3-5.1-6.1c-6.2-1-12.4-2.4-18.1-5.2c-4.5-2.2-5-3.3-3.7-8c1-3.5,1.9-7,3-10.5    c1.3-4,2.3-4.5,6.1-2.6c6.3,3.3,13,5.1,20.1,6c4.5,0.6,9,0.1,13.2-1.7c7.8-3.4,9.1-12.5,2.4-18c-2.3-1.9-4.8-3.2-7.5-4.4    c-6.9-3-14-5.3-20.5-9.2c-10.5-6.3-17.2-15-16.4-27.8c0.9-14.5,9.1-23.5,22.4-28.4c5.5-2,5.5-1.9,5.5-7.6c0-1.9,0-3.9,0-5.8    c0.1-4.3,0.8-5.1,5.1-5.2c1.3,0,2.7,0,4,0c9.2,0,9.2,0,9.2,9.2c0,6.5,0,6.5,6.5,7.5c4.9,0.8,9.7,2.2,14.2,4.2    c2.5,1.1,3.5,2.9,2.7,5.5c-1.2,4-2.2,7.9-3.5,11.8c-1.2,3.7-2.4,4.2-5.9,2.5c-7.1-3.5-14.6-4.9-22.6-4.5c-2.1,0.1-4.1,0.4-6,1.2    c-6.8,3-7.9,10.5-2.1,15.2c2.9,2.4,6.3,4.1,9.8,5.5c6,2.5,12.1,4.9,17.9,8.1C280.9,245.75,285.8,268.75,272.9,284.35z" />
	</g>
</g>
<g
   id="g10">
</g>
<g
   id="g12">
</g>
<g
   id="g14">
</g>
<g
   id="g16">
</g>
<g
   id="g18">
</g>
<g
   id="g20">
</g>
<g
   id="g22">
</g>
<g
   id="g24">
</g>
<g
   id="g26">
</g>
<g
   id="g28">
</g>
<g
   id="g30">
</g>
<g
   id="g32">
</g>
<g
   id="g34">
</g>
<g
   id="g36">
</g>
<g
   id="g38">
</g>
<path
   id="path870"
   d="m 214.65286,483.12467 c -3.34741,-1.46233 -6.38089,-4.4801 -8.00126,-7.95981 -1.51581,-3.25518 -1.5481,-3.73634 -1.5544,-23.16047 l -0.006,-19.83623 -5.44051,-1.16616 c -18.78306,-4.02608 -42.71189,-13.85922 -59.18615,-24.32154 l -5.60538,-3.5598 -13.84857,13.6545 c -7.61672,7.50998 -14.82898,14.15937 -16.02726,14.77644 -3.10895,1.60099 -8.117891,2.0409 -11.819304,1.03801 -2.844503,-0.77071 -4.851669,-2.54292 -20.827962,-18.38993 -9.724058,-9.64536 -18.284585,-18.50894 -19.023394,-19.69684 -0.77163,-1.24067 -1.495174,-3.83482 -1.700186,-6.09574 -0.644471,-7.10734 0.209371,-8.40405 16.079739,-24.42003 8.679566,-8.7592 13.851183,-14.45133 13.480912,-14.83776 -1.394901,-1.45573 -8.295677,-13.42024 -11.918378,-20.66397 -6.725052,-13.447 -12.245743,-28.69358 -15.25018,-42.11666 l -1.512934,-6.75942 -19.815903,-0.007 c -19.402801,-0.007 -19.885202,-0.0387 -23.1401296,-1.5544 -3.5629256,-1.65896 -6.4534678,-4.61322 -8.1513175,-8.33084 -0.90686333,-1.98567 -1.054115,-5.80869 -1.054115,-27.36741 0,-21.7248 0.14258654,-25.37284 1.0715525,-27.41538 1.5790637,-3.47194 4.8718166,-6.93278 8.0682886,-8.48017 2.658351,-1.28688 3.947687,-1.36384 22.887107,-1.36601 l 20.07006,-0.002 1.546633,-6.75712 c 4.560143,-19.9229 14.050202,-42.52664 24.946707,-59.4189 l 2.916641,-4.5215 -13.977383,-13.94326 C 58.968567,111.57578 53.442925,105.54216 52.674682,103.8642 51.093969,100.41169 51.10312,94.753942 52.694942,91.334538 53.493235,89.619722 60.237671,82.432241 71.96954,70.793769 91.02842,51.886622 91.613647,51.444818 97.599903,51.444818 c 5.855737,0 6.813407,0.688395 22.167717,15.934678 l 14.58397,14.481373 4.54025,-2.935766 c 16.59839,-10.732856 40.10506,-20.589989 59.4137,-24.914251 l 6.73364,-1.508028 0.19065,-20.920241 0.19065,-20.920242 1.99679,-2.8397945 c 1.09823,-1.5618871 3.27485,-3.7383475 4.83694,-4.8365787 l 2.84016,-1.9967841 26.2836,-0.1864517 c 25.70287,-0.18233208 26.35012,-0.15518608 29.29401,1.2286057 3.38779,1.5924504 5.9299,4.2943455 7.70585,8.1902273 1.07785,2.364475 1.20396,4.705015 1.21695,22.586361 0.0134,18.551131 0.0953,19.948959 1.16853,19.954553 3.68168,0.01919 24.37142,6.240119 34.43734,10.354516 7.87351,3.218257 21.30814,10.03275 28.27273,14.34087 3.24998,2.010357 6.15163,3.655198 6.4481,3.655198 0.29646,0 6.63156,-6.065766 14.07799,-13.479474 9.50065,-9.458898 14.42412,-13.8803 16.50653,-14.823275 3.88893,-1.761027 9.27273,-1.790118 12.82745,-0.06931 1.71731,0.831341 9.15482,7.817844 20.53425,19.28908 18.77694,18.928432 19.39476,19.742946 19.39476,25.569376 0,5.68139 -0.86531,6.88133 -15.96954,22.14522 l -14.40917,14.56148 4.2838,6.99688 c 10.88632,17.78107 19.83465,39.68674 23.83445,58.3472 l 1.16616,5.44051 19.5065,0.004 c 10.84387,0.002 20.55065,0.29374 21.8577,0.65683 3.28213,0.91176 7.46937,4.6993 9.29618,8.40877 1.53405,3.11503 1.54174,3.25569 1.54174,28.18997 0,21.55873 -0.14725,25.38174 -1.05411,27.36742 -1.69785,3.71762 -4.58839,6.67188 -8.15131,8.33099 -3.25518,1.5158 -3.73634,1.5481 -23.16047,1.5544 l -19.83623,0.007 -1.16616,5.44051 c -4.02065,18.75771 -13.74158,42.4289 -24.33988,59.26941 l -3.58005,5.68863 13.46373,13.43558 c 15.43504,15.4028 17.06946,17.78262 16.58915,24.15509 -0.15705,2.0837 -0.79433,4.84741 -1.41617,6.14159 -0.6242,1.2991 -9.17154,10.33582 -19.08255,20.17516 -16.24113,16.12366 -18.25192,17.90334 -21.09979,18.67469 -3.58438,0.97082 -8.69459,0.57284 -11.54037,-0.89878 -1.04487,-0.54032 -8.15704,-7.23772 -15.80483,-14.88312 l -13.90507,-13.90072 -5.82781,3.66743 c -16.88854,10.62794 -40.6927,20.41559 -59.40859,24.42727 l -5.44051,1.16616 -0.007,19.83623 c -0.007,19.42413 -0.0386,19.90529 -1.5544,23.16046 -1.65527,3.55467 -4.70478,6.54485 -8.14494,7.98646 -3.03161,1.2704 -52.33598,1.24663 -55.25061,-0.0267 z m 39.89708,-104.64615 c 47.78238,-4.43602 89.66326,-33.29179 110.47668,-76.11804 9.74216,-20.0457 13.69573,-37.36904 13.69573,-60.01047 0,-22.64144 -3.95357,-39.96477 -13.69573,-60.01048 -18.45217,-37.96767 -53.95538,-65.47987 -95.35882,-73.89559 -44.78332,-9.102721 -91.40907,4.83143 -123.63795,36.9493 -11.53751,11.49777 -19.80835,23.17005 -26.9417,38.02167 -10.4232,21.70109 -14.88855,45.21297 -13.05052,68.71633 3.85609,49.30887 32.21503,91.31263 76.2342,112.91407 22.53107,11.05664 47.63039,15.72145 72.27811,13.43321 z"
   style="fill:#fffff9;stroke:#ffffff;stroke-width:2.49274" /><path
   id="path872"
   d="m 234.94128,348.0925 c -18.34315,-1.06438 -38.37872,-8.19263 -54.06754,-19.23614 -7.56978,-5.32843 -19.81346,-17.62821 -25.39037,-25.50669 -25.4184,-35.90851 -25.84112,-83.14608 -1.0779,-120.45011 9.49197,-14.29898 26.02543,-28.62475 41.74125,-36.16761 39.81955,-19.11153 86.89892,-11.83051 118.88099,18.38542 23.36913,22.07863 35.34701,52.66873 33.12734,84.6034 -3.27446,47.1103 -37.50701,86.37768 -84.10346,96.47319 -8.01258,1.73599 -19.26462,2.46984 -29.11031,1.89854 z m 15.07846,-34.13398 c 1.02125,-1.26119 1.23465,-2.6705 1.24302,-8.20895 0.005,-3.6775 0.24899,-7.06274 0.54097,-7.52275 0.29197,-0.46001 2.86699,-1.73595 5.72224,-2.83541 9.94853,-3.83083 17.51101,-10.9532 20.80123,-19.59066 2.0249,-5.31575 2.47988,-14.44519 0.97746,-19.61333 -1.67538,-5.76312 -4.03806,-9.9967 -7.84076,-14.04954 -4.75254,-5.06517 -9.20969,-7.76592 -21.27289,-12.89006 -11.49345,-4.88212 -16.23007,-7.86782 -17.84099,-11.24595 -2.20835,-4.63098 0.91222,-9.97097 6.78823,-11.61615 4.87926,-1.36611 14.19326,-0.47732 21.10976,2.01439 3.21333,1.15763 6.80836,2.25464 7.98898,2.4378 2.54177,0.39434 2.87792,-0.2202 5.80963,-10.62083 1.65238,-5.86201 1.74328,-6.69027 0.89789,-8.18126 -1.14927,-2.02692 -7.07514,-4.38369 -15.33063,-6.09712 -3.1994,-0.66403 -6.21293,-1.53586 -6.69675,-1.93739 -0.58517,-0.48565 -0.95583,-2.80712 -1.1072,-6.93428 -0.14437,-3.93643 -0.5409,-6.51719 -1.08484,-7.06042 -1.20373,-1.2022 -15.54686,-1.20191 -16.75017,3.4e-4 -0.54732,0.54683 -0.92499,3.05049 -1.04451,6.92428 -0.26483,8.58347 -0.29736,8.66662 -3.92341,10.02732 -9.32709,3.50005 -16.79052,9.18301 -20.13843,15.33424 -3.8102,7.0006 -4.83709,17.50046 -2.41478,24.69099 3.22837,9.58328 10.42247,15.96055 24.91789,22.08866 16.96448,7.17193 19.73941,8.94132 21.57965,13.75991 1.40638,3.68256 0.59782,7.12496 -2.37082,10.09359 -5.7705,5.7705 -20.07959,5.29145 -34.78936,-1.16471 -3.66965,-1.61062 -5.05141,-1.9371 -6.01526,-1.42125 -1.22863,0.65754 -2.64862,4.57343 -5.01533,13.83068 -1.03634,4.05359 -1.02906,4.30335 0.17297,5.9351 1.65926,2.25243 10.0561,5.60089 17.6328,7.03155 8.79685,1.66105 8.90066,1.76239 8.91238,8.70052 0.0108,6.40426 0.82382,8.74718 3.29283,9.48928 0.90385,0.27167 4.42705,0.41745 7.82932,0.32397 5.55722,-0.15269 6.31127,-0.32471 7.41888,-1.69256 z"
   style="fill:#fffff9;stroke:#ffffff;stroke-width:2.49274" /></svg>
