<?xml version="1.0" encoding="UTF-8" standalone="no"?>
<svg
   xmlns:dc="http://purl.org/dc/elements/1.1/"
   xmlns:cc="http://creativecommons.org/ns#"
   xmlns:rdf="http://www.w3.org/1999/02/22-rdf-syntax-ns#"
   xmlns:svg="http://www.w3.org/2000/svg"
   xmlns="http://www.w3.org/2000/svg"
   id="svg8"
   version="1.1"
   viewBox="0 0 210 207"
   height="207mm"
   width="210mm">
  <defs
     id="defs2" />
  <metadata
     id="metadata5">
    <rdf:RDF>
      <cc:Work
         rdf:about="">
        <dc:format>image/svg+xml</dc:format>
        <dc:type
           rdf:resource="http://purl.org/dc/dcmitype/StillImage" />
        <dc:title></dc:title>
      </cc:Work>
    </rdf:RDF>
  </metadata>
  <g
     id="layer1">
    <path
       id="path847"
       d="m 79.538247,203.30984 c -3.288831,-0.32447 -6.968723,-2.09383 -9.271331,-4.45783 -1.169033,-1.2002 -2.181598,-3.18779 -4.634349,-9.09689 -3.587514,-8.64293 -5.173449,-10.89302 -8.959735,-12.7119 -2.384931,-1.14568 -3.47533,-1.24602 -11.901055,-1.09503 -8.889767,0.15931 -9.694892,0.0725 -12.633767,-1.36299 -1.768956,-0.86402 -2.422474,-1.32222 -3.634717,-2.54841 -2.279914,-2.30616 -3.433922,-4.56427 -3.857177,-7.54756 -0.255661,-1.80202 0.0063,-4.39182 0.945909,-9.35328 1.730025,-9.13461 1.755484,-11.16816 0.181163,-14.46901 -1.478266,-3.09944 -3.781796,-5.16912 -9.595565,-8.62145 -4.663057,-2.76901 -7.7419491,-4.79299 -8.6069892,-5.65804 -3.0659951,-3.06599 -4.5144535,-8.08997 -3.5900961,-12.45228 0.6254581,-2.95174 2.0570847,-5.03052 7.4195333,-10.77352 6.626697,-7.096977 7.210034,-8.237649 7.215947,-14.11028 l 0.003,-3.046309 -3.277141,-6.605274 c -1.802435,-3.632913 -3.540033,-7.399209 -3.861337,-8.369555 -0.823936,-2.488316 -0.920339,-4.396514 -0.34085,-6.746774 1.078661,-4.374778 3.132739,-7.027015 6.856647,-8.853314 2.349305,-1.15217 4.037516,-1.69599 9.491607,-3.057519 6.716934,-1.676776 8.505172,-2.458106 10.901823,-4.763256 3.085852,-2.968037 3.537808,-4.348534 4.733718,-14.459025 0.802079,-6.780939 1.032934,-7.891689 2.086821,-10.040624 0.666907,-1.359858 1.220191,-2.105382 2.541987,-3.425245 2.953001,-2.948679 5.650263,-3.996487 9.784418,-3.800983 2.529321,0.11962 4.977183,0.727447 10.585614,2.628544 5.69649,1.930947 8.429155,2.458525 10.78498,2.082182 4.41565,-0.705405 6.391911,-2.263842 12.815339,-10.105921 3.707886,-4.5267921 6.009371,-6.7753033 7.875029,-7.693756 1.822367,-0.8971582 4.540337,-1.2282176 7.505207,-0.9141795 4.93754,0.5229871 6.59283,1.7398401 12.49512,9.1855215 6.04035,7.619839 8.98706,9.641909 14.00982,9.613667 2.34819,-0.01322 3.74171,-0.350807 9.79613,-2.373245 6.64657,-2.220249 7.28871,-2.364843 10.54485,-2.374455 2.41418,-0.0072 2.98882,0.05821 4.15122,0.471657 2.43941,0.867768 4.86249,2.766712 6.55519,5.137262 1.83662,2.572101 2.13161,3.734283 2.98477,11.759374 0.34857,3.278827 0.77543,6.641315 0.94858,7.472192 0.60584,2.907279 2.57158,6.156675 4.71202,7.789058 2.06944,1.578225 3.5905,2.150934 10.35471,3.898654 8.52599,2.20294 10.04576,2.846286 12.43216,5.262817 2.41317,2.443636 3.61727,5.225781 3.87294,8.948586 0.18327,2.668714 -0.28317,4.045092 -3.90011,11.508164 -1.71206,3.532609 -3.29185,6.954349 -3.51067,7.603883 -0.53607,1.591301 -0.73896,4.7146 -0.42453,6.535458 0.50929,2.94952 2.03404,5.245785 7.04377,10.607905 3.37249,3.60972 5.23738,5.83399 6.1477,7.3324 2.56673,4.22484 2.27533,10.05173 -0.72406,14.4786 -1.20995,1.7858 -3.12447,3.2338 -8.50387,6.43174 -7.57063,4.50055 -9.36041,5.99031 -10.85029,9.03143 -1.7913,3.65638 -1.81184,5.43986 -0.16353,14.20604 1.15124,6.12264 1.39211,8.41715 1.06829,10.17632 -0.68656,3.72987 -2.89398,7.18956 -5.88451,9.22283 -2.78786,1.89547 -3.80042,2.02946 -15.39339,2.03696 l -8.28299,0.005 -2.14845,1.05445 c -4.27827,2.0998 -5.40898,3.64095 -9.02214,12.29701 -2.76609,6.62673 -3.76985,8.51769 -5.37166,10.11949 -2.38526,2.38527 -6.26469,3.99209 -9.64932,3.99665 -2.9162,0.004 -5.4399,-1.0437 -10.01952,-4.15927 -8.12312,-5.52626 -9.89077,-6.55112 -12.42703,-7.20493 -3.93148,-1.0135 -7.19581,0.16283 -14.892784,5.3667 -5.038667,3.40661 -7.596882,4.90244 -9.361898,5.47404 -1.264878,0.40963 -3.022168,0.62855 -4.151222,0.51716 z m 37.251563,-34.40372 c 19.09014,-3.6847 35.34648,-14.9263 44.96034,-31.09098 4.86392,-8.17815 8.16928,-17.90865 8.7929,-25.885 0.28154,-3.6011 0.28063,-12.310436 -0.002,-15.721836 -0.56114,-6.781308 -3.05722,-14.870744 -6.86982,-22.264183 -6.5805,-12.760945 -17.10864,-22.985657 -29.92743,-29.064901 -5.83635,-2.76785 -12.91972,-5.024497 -17.56877,-5.597114 -5.76674,-0.710282 -16.658257,-0.762812 -21.109864,-0.101758 -6.203847,0.921188 -14.40896,3.686743 -20.404945,6.877563 -16.702083,8.888167 -28.612451,24.254434 -33.093393,42.695714 -1.422159,5.852895 -1.465514,6.29263 -1.465514,14.863735 0,9.81657 0.300981,12.4545 2.107705,18.47292 4.979025,16.58574 15.257143,29.87202 29.796184,38.51684 5.818976,3.45992 12.691585,6.19179 19.467465,7.73835 4.074725,0.93003 5.824549,1.04174 15.151942,0.96727 6.71293,-0.0536 8.76047,-0.1355 10.16486,-0.40657 z m -14.7312,-6.98257 C 91.612575,161.44198 81.783372,158.16229 73.000075,152.22759 67.244272,148.33852 61.883666,143.04837 57.754111,137.18198 52.273208,129.39592 48.497507,119.09188 47.662323,109.6411 47.356009,106.1749 47.524934,98.545067 47.974331,95.548911 48.864899,89.611433 51.055824,82.99549 54.018843,77.2963 63.036901,59.950613 80.135429,48.368554 99.757893,46.313968 c 5.194177,-0.543861 13.192597,0.03167 19.276727,1.386984 10.79384,2.404532 22.02721,9.127981 29.59725,17.714694 7.98505,9.057436 12.54026,19.061977 14.27512,31.352157 0.18137,1.284795 0.27285,3.924447 0.26257,7.575967 -0.0132,4.69188 -0.0908,6.09406 -0.47668,8.61378 -0.92347,6.03029 -2.40991,10.79087 -5.08747,16.29354 -3.19632,6.56878 -6.14153,10.71096 -11.22045,15.78064 -4.70229,4.69376 -8.91611,7.80009 -14.47799,10.67289 -9.27826,4.79238 -18.61142,6.73695 -29.84836,6.21893 z m 2.9801,-36.19482 c 2.87779,-0.51291 4.24291,-1.41914 6.59454,-4.37781 1.41693,-1.78269 6.30445,-8.59699 13.38929,-18.66764 9.25679,-13.157968 9.49649,-13.555668 9.47075,-15.713867 -0.0121,-1.009585 -0.15612,-1.696923 -0.52431,-2.501125 -0.88538,-1.933951 -3.50404,-4.084413 -6.04166,-4.961475 -1.38338,-0.478133 -3.86385,-0.501283 -4.82533,-0.04499 -1.28798,0.611188 -3.08102,2.934117 -10.71247,13.878232 -7.11724,10.206705 -10.01711,14.221445 -10.22713,14.159025 -0.11416,-0.0339 -1.96304,-2.39228 -4.108617,-5.24079 -6.033869,-8.010655 -7.571323,-9.968441 -8.943042,-11.387992 -1.112045,-1.150828 -1.417228,-1.347254 -2.453216,-1.578994 -2.313157,-0.517433 -5.522235,0.670502 -7.95243,2.943822 -1.863323,1.743048 -2.456086,3.004704 -2.347576,4.996625 0.126293,2.318359 0.156606,2.368797 7.206734,11.989749 8.424025,11.49583 10.556549,14.18172 12.040138,15.16441 2.155432,1.42771 5.937689,1.96606 9.434329,1.34286 z"
       style="fill:#000000;stroke-width:0.207561" />
    <path
       transform="scale(0.26458333)"
       id="path849"
       d="m 294.69779,766.39541 c -3.92857,-0.96139 -10.03571,-3.2324 -13.57143,-5.04669 -14.96257,-7.67779 -19.67088,-13.92924 -30.7086,-40.77336 -7.36577,-17.91384 -15.82717,-34.5389 -20.7281,-40.72683 -2.2811,-2.88012 -8.1946,-7.43028 -13.1411,-10.11147 l -8.99362,-4.87487 -38.57143,-0.7371 -38.57143,-0.7371 -8.62375,-4.48843 c -4.74306,-2.46864 -11.28668,-7.37737 -14.54137,-10.9083 C 92.839096,632.36058 91.421226,621.93739 98.256322,581.89841 103.54705,550.90608 103.43925,542.47228 97.59977,530.53682 92.473693,520.05949 81.136457,510.17733 58.307315,496.28736 30.631756,479.44868 26.933582,476.33373 21.145236,464.98612 c -4.064433,-7.96801 -5.079893,-11.72096 -5.517795,-20.39269 -0.984633,-19.49855 2.33928,-25.64164 31.091562,-57.46181 20.90166,-23.13189 23.27218,-27.78766 24.069274,-47.27283 l 0.613616,-15 -13.67004,-27.79927 c -17.87403,-36.34847 -19.220966,-43.26353 -12.137727,-62.31409 6.44804,-17.34215 19.315501,-25.39992 56.960814,-35.66954 28.97921,-7.90551 36.34312,-11.37838 45.59735,-21.50398 9.06726,-9.92103 10.54049,-14.78929 15.29482,-50.54153 2.03954,-15.33723 4.95771,-31.229781 6.48483,-35.316778 3.894,-10.421425 13.70744,-20.80308 24.84951,-26.2883 8.88553,-4.374335 9.63481,-4.496187 23.12117,-3.760044 11.79639,0.643899 17.45013,1.925624 36.79517,8.341624 21.34997,7.080956 23.79913,7.585053 37.14286,7.644939 21.27476,0.09549 26.48013,-3.271983 52.7914,-34.151842 17.45633,-20.487374 27.50699,-30.119422 34.73883,-33.291962 6.43551,-2.8231956 26.69928,-3.1513662 35.62398,-0.5769288 9.31805,2.6879018 16.93712,9.4198578 34.2605,30.2714388 26.92075,32.403595 33.69428,37.256605 53.29958,38.187384 11.63135,0.552207 13.30625,0.210454 39.76127,-8.113029 24.66927,-7.761641 28.90405,-8.68952 39.65843,-8.68952 9.24225,0 13.51904,0.695226 18.40494,2.991873 12.66163,5.951664 24.39634,19.180414 27.9696,31.530603 0.75798,2.619781 2.94717,17.521902 4.86487,33.115822 3.92124,31.88589 7.05533,41.18116 17.35961,51.48627 7.59385,7.59445 15.5455,10.94278 45.9272,19.33928 26.99436,7.46035 34.06042,10.26957 41.43103,16.47152 11.60555,9.76543 19.30046,30.62693 16.3991,44.45925 -0.87368,4.16535 -7.56018,20.30914 -14.85887,35.8751 l -13.27034,28.30171 -0.53652,13.32487 c -0.5061,12.5693 -0.28628,13.82489 3.87643,22.14286 2.42713,4.8499 9.28095,14.28227 15.2307,20.96084 31.28805,35.12067 34.2334,39.39527 36.15626,52.47357 2.54257,17.29338 -4.83224,36.57869 -17.77199,46.47419 -3.86667,2.95697 -15.55898,10.56779 -25.98292,16.91291 -23.07706,14.04716 -33.17169,22.94756 -38.2846,33.75536 -5.66398,11.97266 -5.776,20.2082 -0.67565,49.66969 5.37989,31.07611 5.63906,40.02248 1.48097,51.12083 -4.10821,10.96522 -15.9508,23.8053 -26.05315,28.24755 -7.09672,3.12062 -9.62182,3.3376 -45.37209,3.89885 l -37.85714,0.59432 -9.6773,5.04999 c -14.27873,7.45119 -17.56209,12.32743 -34.73974,51.59309 -4.93363,11.27754 -10.6921,22.98928 -12.79662,26.0261 -8.39356,12.11192 -23.86894,19.81015 -39.9292,19.86281 -12.59974,0.0413 -19.4368,-3.0603 -47.85714,-21.71013 -30.59154,-20.0746 -31.20584,-20.34416 -46.42857,-20.37318 -11.8196,-0.0226 -13.60649,0.36265 -22.14286,4.77332 -5.10714,2.63883 -18.11583,10.54519 -28.90817,17.5697 -29.65393,19.30112 -38.97689,22.65819 -53.23469,19.16908 z M 451.84065,636.67849 c 62.16663,-14.07146 117.29634,-51.52046 152.68479,-103.71708 10.28398,-15.1685 24.79447,-44.89343 30.7366,-62.96433 8.21898,-24.9952 10.15004,-39.39215 10.15004,-75.67336 0,-37.80821 -1.70744,-50.65914 -10.16566,-76.5112 -27.3556,-83.61077 -92.70328,-144.64337 -178.25846,-166.48754 -25.95992,-6.62816 -84.62262,-7.49664 -110.14731,-1.63069 -51.677,11.87614 -92.19479,34.72322 -128.67501,72.55694 -29.80378,30.90958 -49.76495,67.16816 -61.59976,111.89328 l -4.72523,17.85714 0.0948,42.85714 c 0.0922,41.69353 0.19658,43.2269 3.84331,56.47539 17.79878,64.66275 52.9447,114.52697 105.52005,149.70938 31.18685,20.86963 73.30423,36.36987 105.54184,38.842 24.01659,1.84172 70.43181,0.0904 85,-3.20707 z"
       style="fill:#fffff9;stroke:#ffffff;stroke-width:5.4" />
    <path
       transform="scale(0.26458333)"
       id="path851"
       d="m 364.69779,609.28331 c -36.06154,-5.99418 -67.19329,-19.0846 -96.35055,-40.51392 -14.58232,-10.71737 -37.37248,-34.10157 -48.43304,-49.6955 -16.61627,-23.42674 -29.49959,-53.76941 -36.0605,-84.92938 -4.08073,-19.38078 -4.4317,-59.35415 -0.69421,-79.06573 8.14312,-42.94697 30.01952,-84.43846 60.6908,-115.10816 29.81068,-29.80915 62.03295,-48.01578 104.41893,-59.0001 30.12067,-7.80577 73.86332,-7.06828 107.78736,1.81727 57.31483,15.01218 109.85696,58.18983 137.21048,112.75573 8.34686,16.65065 16.71869,41.89667 19.98363,60.26244 3.1978,17.98819 2.4035,67.4526 -1.34973,84.05283 -5.82811,25.77733 -17.61798,52.83122 -33.28948,76.3885 -11.26949,16.94019 -36.85064,43.13733 -53.95209,55.2512 -23.39815,16.57419 -52.96228,29.70196 -80.00915,35.52762 -18.20438,3.92104 -62.43093,5.16964 -79.95245,2.2572 z m 42.95289,-136.61372 c 3.43436,-1.66254 8.75376,-6.02868 11.8209,-9.70251 11.47773,-13.7481 82.04867,-113.925 86.64824,-122.99896 3.7481,-7.39419 3.23982,-17.60676 -1.21103,-24.33243 -8.75743,-13.23337 -29.59515,-21.08998 -40.8409,-15.39857 -4.30194,2.17719 -12.95401,13.60961 -49.16503,64.96433 l -28.36637,40.22937 -3.1804,-3.85744 c -1.74921,-2.12159 -11.48251,-14.77982 -21.62954,-28.1294 -10.14703,-13.34957 -21.14453,-27.08502 -24.4389,-30.5232 l -5.98974,-6.25125 -10.01367,0.56583 c -8.87205,0.50132 -10.95272,1.21243 -18.2502,6.23749 -4.53008,3.11941 -9.70538,7.85601 -11.50066,10.52577 -4.3216,6.42664 -4.4286,17.30131 -0.247,25.10327 3.47106,6.47626 36.16721,51.59873 53.14744,73.34636 12.751,16.33101 17.02037,19.97363 26.6051,22.69937 9.3817,2.66801 28.67962,1.36184 36.61176,-2.47803 z"
       style="fill:#fffff9;stroke:#ffffff;stroke-width:5.4" />
  </g>
</svg>
