<?xml version="1.0" encoding="UTF-8" standalone="no"?>
<svg
   xmlns:dc="http://purl.org/dc/elements/1.1/"
   xmlns:cc="http://creativecommons.org/ns#"
   xmlns:rdf="http://www.w3.org/1999/02/22-rdf-syntax-ns#"
   xmlns:svg="http://www.w3.org/2000/svg"
   xmlns="http://www.w3.org/2000/svg"
   xmlns:sodipodi="http://sodipodi.sourceforge.net/DTD/sodipodi-0.dtd"
   xmlns:inkscape="http://www.inkscape.org/namespaces/inkscape"
   inkscape:version="1.0 (4035a4fb49, 2020-05-01)"
   sodipodi:docname="repair.svg"
   xml:space="preserve"
   style="enable-background:new 0 0 38.562 38.562;"
   viewBox="0 0 38.562 38.562"
   y="0px"
   x="0px"
   id="Capa_1"
   version="1.1"><metadata
   id="metadata41"><rdf:RDF><cc:Work
       rdf:about=""><dc:format>image/svg+xml</dc:format><dc:type
         rdf:resource="http://purl.org/dc/dcmitype/StillImage" /></cc:Work></rdf:RDF></metadata><defs
   id="defs39" /><sodipodi:namedview
   inkscape:current-layer="Capa_1"
   inkscape:window-maximized="1"
   inkscape:window-y="-8"
   inkscape:window-x="-8"
   inkscape:cy="19.281"
   inkscape:cx="19.281"
   inkscape:zoom="19.060215"
   showgrid="false"
   id="namedview37"
   inkscape:window-height="987"
   inkscape:window-width="1680"
   inkscape:pageshadow="2"
   inkscape:pageopacity="0"
   guidetolerance="10"
   gridtolerance="10"
   objecttolerance="10"
   borderopacity="1"
   bordercolor="#666666"
   pagecolor="#ffffff" />
<g
   id="g4">
	<path
   id="path2"
   d="M36.481,6.881l-1.499-1.289c-3.208,2.958-4.503,6.061-7.297,3.649   c-2.796-2.407,0.082-4.146,2.535-7.754c0,0-0.669-0.578-1.495-1.293c-0.828-0.715-3.129,0.606-5.144,2.94l-3.646,4.233   c-1.986,2.304-1.748,5.764,0.504,7.785l-1.062,1.232l-7.68-10.119c0.409-0.857,1.346-1.749,0.474-2.449L7.249,1.82L5.538,3.308   c0,0,0.504,4.799,0.503,4.798c0.495,1.158,1.896,0.732,2.946,0.358l7.359,9.699c-1.085-0.258-2.257,0.061-3.038,0.965L1.786,32.494   l4.348,3.747c1.311,1.131,3.285,0.984,4.416-0.328l10.244-11.886l2.529,3.332c-1.187,1.077-0.936,2.519,0.052,3.82l5.604,7.383   l4.096-3.106c1.377-1.046,0.989-2.455-0.056-3.834l-5.603-7.383l-1.345,0.97l-4.681-6.171l1.515-1.758   c2.335,1.93,5.793,1.653,7.78-0.649l3.646-4.229C36.343,10.066,37.306,7.596,36.481,6.881z M9.986,32.712   c-0.693,0.807-1.904,0.895-2.706,0.202c-0.806-0.692-0.894-1.903-0.202-2.708s1.903-0.892,2.706-0.198   C10.589,30.7,10.678,31.91,9.986,32.712z"
   style="fill:#010002;" />
</g>
<g
   id="g6">
</g>
<g
   id="g8">
</g>
<g
   id="g10">
</g>
<g
   id="g12">
</g>
<g
   id="g14">
</g>
<g
   id="g16">
</g>
<g
   id="g18">
</g>
<g
   id="g20">
</g>
<g
   id="g22">
</g>
<g
   id="g24">
</g>
<g
   id="g26">
</g>
<g
   id="g28">
</g>
<g
   id="g30">
</g>
<g
   id="g32">
</g>
<g
   id="g34">
</g>
<path
   id="path866"
   d="m 27.019633,35.928729 c -1.082097,-1.425993 -2.399867,-3.163963 -2.928378,-3.862155 -1.00389,-1.326193 -1.303097,-1.828627 -1.458332,-2.44886 -0.179771,-0.718261 0.01152,-1.480305 0.506339,-2.017122 0.156468,-0.169749 0.206159,-0.25881 0.170376,-0.305369 -0.02778,-0.03615 -0.59993,-0.791718 -1.271436,-1.679037 -0.671506,-0.88732 -1.236052,-1.611585 -1.254546,-1.609479 -0.0185,0.0021 -2.359152,2.707524 -5.20146,6.01204 -2.842308,3.304515 -5.274075,6.101278 -5.403927,6.215026 -0.4931482,0.431994 -1.2966056,0.728035 -1.9758892,0.728035 -0.5213283,0 -0.8623869,-0.07928 -1.3575612,-0.31559 C 6.4769224,36.470652 6.1305164,36.192982 4.126531,34.467314 L 1.8298697,32.489617 1.931138,32.37789 c 0.055698,-0.06145 2.6218523,-3.039291 5.7025662,-6.617425 3.0807138,-3.578133 5.6985448,-6.607618 5.8174028,-6.732187 0.331517,-0.347446 0.787511,-0.625838 1.27306,-0.777225 0.395101,-0.123186 0.50269,-0.135029 1.039859,-0.114468 0.414133,0.01585 0.589052,0.0057 0.566424,-0.03279 C 16.296951,18.046767 9.0875325,8.5278242 9.0297252,8.4642935 9.0121666,8.4449957 8.7944508,8.4954385 8.5459127,8.5763882 7.6555035,8.8663976 7.0365803,8.9003127 6.6096169,8.682492 6.3607211,8.5555149 6.1560192,8.3127611 6.088223,8.0641763 6.0590657,7.9572672 5.9402365,6.9372252 5.824158,5.7974164 5.7080795,4.6576076 5.5997793,3.6388666 5.5834908,3.5335476 L 5.5538752,3.3420584 6.4037601,2.5992525 C 6.8711967,2.1907092 7.2801342,1.8668133 7.31251,1.8794837 c 1.2386839,0.4847637 4.810263,1.9610314 4.892935,2.0224338 0.284206,0.2110838 0.35769,0.5978974 0.192944,1.0156433 -0.04859,0.1232216 -0.226774,0.4582958 -0.395955,0.7446089 -0.169181,0.2863132 -0.300589,0.5606002 -0.29202,0.6095262 0.01672,0.095484 7.599698,10.1182771 7.657787,10.1216781 0.03452,0.002 0.983276,-1.065029 1.060608,-1.192855 0.02614,-0.04322 -0.04654,-0.154615 -0.205389,-0.314792 -1.906484,-1.922409 -2.136207,-5.003098 -0.532949,-7.1470943 0.314437,-0.4204895 4.027549,-4.7233512 4.52171,-5.2398876 1.50445,-1.57257452 3.263026,-2.61555731 4.134144,-2.45189257 0.152759,0.02870005 0.383196,0.19604084 0.996841,0.72389425 0.438984,0.37761062 0.804279,0.70167812 0.811767,0.72015002 0.01778,0.043853 -0.979685,1.3677044 -1.880973,2.4964665 -1.173249,1.4693623 -1.535264,2.0614007 -1.703517,2.7859314 -0.193903,0.8349859 0.156909,1.6739208 1.010388,2.4162545 1.226428,1.0667138 2.207081,1.2014788 3.346238,0.4598506 0.250406,-0.1630218 0.704734,-0.5862086 1.417792,-1.3206085 0.577119,-0.5943915 1.405479,-1.44514 1.840802,-1.8905521 l 0.791496,-0.8098409 0.782463,0.6754667 c 0.459002,0.3962364 0.820385,0.7510781 0.874197,0.8583723 0.137573,0.2743065 0.120813,0.8315116 -0.04201,1.3968547 -0.253539,0.8802944 -1.027727,2.252224 -1.861117,3.298067 -0.730597,0.916845 -4.214844,4.913241 -4.571436,5.24339 -0.984448,0.911448 -2.255697,1.40567 -3.638039,1.414355 -0.763207,0.0048 -1.200387,-0.06479 -1.862518,-0.296465 -0.565347,-0.197809 -0.835795,-0.335294 -1.354961,-0.688805 l -0.416284,-0.283458 -0.767544,0.893375 c -0.493567,0.574483 -0.751567,0.914242 -0.722785,0.951831 0.02462,0.03215 1.076773,1.421897 2.338125,3.088326 1.261352,1.66643 2.316251,3.029872 2.344221,3.029872 0.02797,0 0.338478,-0.208882 0.690019,-0.464183 l 0.639164,-0.464182 1.516144,1.998792 c 0.833879,1.099336 2.121597,2.796075 2.861596,3.770532 0.739999,0.974456 1.465473,1.968942 1.612164,2.209968 0.678378,1.114628 0.694934,2.089652 0.04765,2.80612 -0.107861,0.119389 -0.871974,0.72917 -1.698031,1.35507 -0.826056,0.6259 -1.785233,1.354392 -2.131504,1.618873 l -0.629584,0.480872 z M 9.3388246,33.227393 C 9.7641309,33.028503 10.042147,32.759959 10.247314,32.349855 10.758276,31.328501 10.37011,30.197246 9.3388246,29.702193 9.0344125,29.556065 8.947106,29.53855 8.5256123,29.539054 c -0.4006628,4.72e-4 -0.5176306,0.02174 -0.772188,0.140348 -0.3946887,0.183906 -0.7926113,0.562747 -0.9683244,0.921891 -0.1715991,0.350736 -0.2285837,1.021886 -0.1197641,1.410551 0.1554742,0.5553 0.6443086,1.069688 1.2193519,1.283094 0.3972017,0.147407 1.0603548,0.116603 1.4541369,-0.06755 z"
   style="fill:#fffff9;stroke:#ffffff;stroke-width:0.198319" /></svg>
