<?xml version="1.0" encoding="UTF-8" standalone="no"?>
<!-- Generator: Adobe Illustrator 18.0.0, SVG Export Plug-In . SVG Version: 6.00 Build 0)  -->

<svg
   version="1.1"
   id="Capa_1"
   x="0px"
   y="0px"
   viewBox="0 0 183.792 183.792"
   style="enable-background:new 0 0 183.792 183.792;"
   xml:space="preserve"
   sodipodi:docname="search-svgrepo-com.svg"
   inkscape:version="1.1.1 (3bf5ae0d25, 2021-09-20)"
   xmlns:inkscape="http://www.inkscape.org/namespaces/inkscape"
   xmlns:sodipodi="http://sodipodi.sourceforge.net/DTD/sodipodi-0.dtd"
   xmlns="http://www.w3.org/2000/svg"
   xmlns:svg="http://www.w3.org/2000/svg"><defs
   id="defs37" /><sodipodi:namedview
   id="namedview35"
   pagecolor="#ffffff"
   bordercolor="#666666"
   borderopacity="1.0"
   inkscape:pageshadow="2"
   inkscape:pageopacity="0.0"
   inkscape:pagecheckerboard="0"
   showgrid="false"
   inkscape:zoom="2.8292852"
   inkscape:cx="197.04624"
   inkscape:cy="91.719281"
   inkscape:window-width="1366"
   inkscape:window-height="705"
   inkscape:window-x="-8"
   inkscape:window-y="-8"
   inkscape:window-maximized="1"
   inkscape:current-layer="Capa_1" />
<path
   d="M54.734,9.053C39.12,18.067,27.95,32.624,23.284,50.039c-4.667,17.415-2.271,35.606,6.743,51.22  c12.023,20.823,34.441,33.759,58.508,33.759c7.599,0,15.139-1.308,22.287-3.818l30.364,52.592l21.65-12.5l-30.359-52.583  c10.255-8.774,17.638-20.411,21.207-33.73c4.666-17.415,2.27-35.605-6.744-51.22C134.918,12.936,112.499,0,88.433,0  C76.645,0,64.992,3.13,54.734,9.053z M125.29,46.259c5.676,9.831,7.184,21.285,4.246,32.25c-2.938,10.965-9.971,20.13-19.802,25.806  c-6.462,3.731-13.793,5.703-21.199,5.703c-15.163,0-29.286-8.146-36.857-21.259c-5.676-9.831-7.184-21.284-4.245-32.25  c2.938-10.965,9.971-20.13,19.802-25.807C73.696,26.972,81.027,25,88.433,25C103.597,25,117.719,33.146,125.29,46.259z"
   id="path2" />
<g
   id="g4">
</g>
<g
   id="g6">
</g>
<g
   id="g8">
</g>
<g
   id="g10">
</g>
<g
   id="g12">
</g>
<g
   id="g14">
</g>
<g
   id="g16">
</g>
<g
   id="g18">
</g>
<g
   id="g20">
</g>
<g
   id="g22">
</g>
<g
   id="g24">
</g>
<g
   id="g26">
</g>
<g
   id="g28">
</g>
<g
   id="g30">
</g>
<g
   id="g32">
</g>
<path
   style="fill:#ffffff;stroke:#000000;stroke-width:2.75187"
   d="m 140.95351,182.83612 c -0.19882,-0.25185 -7.00567,-11.98908 -15.12633,-26.08274 -8.12067,-14.09367 -14.78535,-25.65381 -14.8104,-25.6892 -0.0251,-0.0354 -1.62871,0.40634 -3.56369,0.98161 -5.19892,1.54566 -10.673708,2.43654 -16.440702,2.6753 C 65.104197,135.7937 40.188262,121.12954 28.575356,97.974069 20.856199,82.58251 19.137829,66.255319 23.527611,50.012633 29.336731,28.518235 45.451167,11.274914 66.612957,3.9089789 c 27.60832,-9.6098267 58.337033,-0.013537 75.977263,23.7269831 12.04143,16.205578 16.07298,37.093438 10.9753,56.864216 -3.03572,11.773698 -9.61477,23.025872 -18.32744,31.345502 -1.57987,1.5086 -2.87249,2.8242 -2.87249,2.92355 0,0.0994 6.76554,11.89564 15.03453,26.21398 12.02405,20.82049 14.94345,26.11696 14.57966,26.45089 -0.47412,0.4352 -19.36539,11.36128 -20.19253,11.67869 -0.25974,0.0997 -0.63492,-0.0248 -0.83374,-0.27667 z M 95.488565,109.57029 c 17.654375,-2.86333 31.568605,-16.545256 34.972725,-34.388823 0.78118,-4.094758 0.7842,-11.313585 0.006,-15.346498 C 127.01778,41.94673 113.4231,28.546127 95.623935,25.488654 86.791018,23.971367 77.89405,25.281413 69.628895,29.316332 c -12.01718,5.866601 -20.19004,16.498354 -23.037685,29.96882 -0.849218,4.017131 -0.861515,12.474465 -0.0238,16.373803 3.329096,15.496158 13.813819,27.404035 28.444917,32.305895 6.153508,2.06162 13.91268,2.66998 20.476246,1.60544 z"
   id="path891" /><path
   style="fill:#ffffff;stroke:#000000;stroke-width:2.75187"
   d="m 140.60194,184.04239 c -0.51206,-0.32551 -3.52233,-5.44222 -18.80994,-31.97218 -6.46906,-11.22633 -11.97572,-20.41151 -12.23703,-20.41151 -0.61723,0 -1.05771,0.7035 -0.44933,0.71764 1.06803,0.0248 -0.90038,0.73776 -4.35907,1.57885 -28.415067,6.91002 -57.9872,-4.9999 -73.980362,-29.79495 -3.85387,-5.974863 -7.8779,-15.89532 -9.368177,-23.095407 C 17.656825,62.98966 21.63937,43.931408 32.405177,28.390741 43.071869,12.993146 60.494832,2.3366347 79.394645,-0.34970763 84.195232,-1.0320437 92.460645,-1.0233094 97.426782,-0.33065228 118.10401,2.5533216 136.23391,14.508908 147.16751,32.470382 c 3.77319,6.198516 6.75405,13.884765 8.43371,21.746592 0.88928,4.162355 0.95182,5.035696 0.95182,13.291244 0,8.302023 -0.059,9.113903 -0.9756,13.430955 -2.897,13.644004 -9.44018,25.731697 -19.05886,35.208837 -1.50656,1.48439 -2.73921,2.79536 -2.73921,2.91326 0,0.1179 0.62612,1.23731 1.39137,2.48759 1.76491,2.88352 22.52484,39.02136 25.41669,44.2441 1.19215,2.15304 2.26477,4.40077 2.38361,4.99496 0.19492,0.97462 0.0656,1.18367 -1.32193,2.13612 -2.71749,1.86545 -19.52145,11.39833 -20.08238,11.39273 -0.29794,-0.003 -0.7321,-0.12645 -0.96479,-0.27438 z m 11.20319,-7.94295 c 4.3739,-2.52065 8.15207,-4.76983 8.39595,-4.9982 0.52485,-0.49145 -0.75258,-2.84356 -14.99069,-27.6021 -13.95492,-24.26609 -14.01555,-24.38016 -13.47203,-25.35063 0.24778,-0.44241 2.05142,-2.47442 4.00808,-4.51557 14.681,-15.314876 20.9783,-34.943152 17.97317,-56.021215 C 149.67037,29.210287 126.79989,6.4825555 97.883608,2.1242339 90.373177,0.99224682 79.454893,1.5887727 72.03868,3.5362844 60.366375,6.6014533 50.623176,12.179219 41.935513,20.769681 31.38944,31.197761 25.073554,43.939032 22.953399,59.063007 c -0.841048,5.999558 -0.53603,15.324422 0.692829,21.18081 1.821402,8.680273 5.558686,17.502997 10.471507,24.720413 2.795402,4.10671 8.556798,10.36513 12.526613,13.60726 8.298209,6.77709 18.727521,11.66796 29.558664,13.86165 3.521525,0.71323 5.053665,0.81547 12.15853,0.81132 8.892426,-0.005 11.831618,-0.37065 18.646608,-2.31858 3.88818,-1.11135 4.66936,-1.23428 4.32739,-0.68097 -0.12014,0.1944 -10e-4,0.35345 0.26417,0.35345 0.26544,0 3.39525,5.04986 6.95513,11.22191 3.55989,6.17206 10.21427,17.69544 14.78753,25.60751 l 8.315,14.38559 1.09761,-0.56547 c 0.60369,-0.311 4.67625,-2.62781 9.05015,-5.14846 z"
   id="path930" /></svg>
